<?xml version="1.0" encoding="UTF-8"?><svg id="a" xmlns="http://www.w3.org/2000/svg" viewBox="0 0 648 648"><circle cx="324" cy="324" r="324"/><path d="M386.43,187.12c-28.75,12.29-53.13,32.97-70.74,58.81l-135.88,199.44h-13.29c-13.36,0-24.2,10.83-24.2,24.2h63.08c0-11.97,8.71-21.89,20.13-23.83l69.35-104.14c18.22-30.35,47.15-41.11,64.52-41.11s36.76-.25,68.9-.25,97.32-24.55,119.13-63.4l-15.15,3.04c-54.98,12.68-91.88.08-150.95,13.54,0,0,8.82-13.72,73.7-19.98,66.88-6.46,97.28-10.78,114.97-55.49h-136.04c-12.94,0-34.99,3.83-47.53,9.19Z" style="fill:#fff;"/><path d="M446.67,369.65c0-30.13-25.32-55.63-67.39-55.63h-20.55c-18.78,0-36.73,8.72-47.62,24.02-.82,1.15-37.42,56.25-37.42,56.25h1.64c10.77,0,21.41-2.09,31.49-5.86,5.29-1.98,13.25-4.01,25-5.29,5.71,11.98,14.52,24.83,27.83,34.8l-18.53,27.42h-15.29c-13.36,0-24.2,10.83-24.2,24.2h53.46c0-11.92,8.63-21.81,19.98-23.81l21.26-31.46c-6.06-10.73-9.54-20.76-11.36-30.2,21,3.85,38.17,12.13,49.22,21.77l24.23,24.76,4.23,14.74h-3.17c-13.36,0-24.2,10.83-24.2,24.2h64.11l-19.73-66.92c-18.22,0-33-14.77-33-33Z" style="fill:#fff;"/><path d="M174.84,207.19c11.28,0,21.82,11.49,23.13,28.5,2.12,27.58-16.74,46.91-18.1,47.91,0,0,9.43,2.61,21.46.85-10.22,10.64-36.76,64.22,3.68,103.8l74.49-109.33c11.83-17.37,13.64-39.82,4.28-58.63-.07-.14-.14-.28-.21-.42-3.22-6.39-11.62-13.89-15.92-18.03,11.7-1.7,20.7-11.74,20.7-23.92h-94.56c-21.09,0-38.19,17.1-38.19,38.19,0,0,5.11-8.93,19.23-8.93Z" style="fill:#fff;"/><path d="M192.89,387.88c-15.9-15.76-21.27-33.7-21.33-50.26l-34.29-34.29h-59.31c0,16.31,13.22,29.53,29.53,29.53h20.09c18.37,19.73,24.61,44.55,25.75,55.02h39.56Z" style="fill:#fff;"/></svg>