<?xml version="1.0" encoding="UTF-8"?><svg id="a" xmlns="http://www.w3.org/2000/svg" viewBox="0 0 537.05 100.31"><path d="M105.94,3.16c-9.88,4.22-18.25,11.32-24.29,20.2l-46.67,68.49h-4.56c-4.59,0-8.31,3.72-8.31,8.31h21.67c0-4.11,2.99-7.52,6.91-8.18l23.82-35.77c6.26-10.42,16.19-14.12,22.16-14.12s12.62-.09,23.66-.09,33.42-8.43,40.91-21.77l-5.2,1.04c-18.88,4.35-31.55.03-51.84,4.65,0,0,3.03-4.71,25.31-6.86,22.97-2.22,33.41-3.7,39.48-19.06h-46.72c-4.45,0-12.02,1.31-16.32,3.16Z"/><path d="M126.63,65.84c0-10.35-8.69-19.1-23.14-19.1h-7.06c-6.45,0-12.61,2.99-16.35,8.25-.28.4-.55.8-.8,1.22l-12.05,18.1h.56c3.7,0,7.35-.72,10.82-2.01,1.82-.68,4.55-1.38,8.59-1.82,1.96,4.11,4.99,8.53,9.56,11.95l-6.36,9.42h-5.25c-4.59,0-8.31,3.72-8.31,8.31h18.36c0-4.09,2.96-7.49,6.86-8.18l7.3-10.81c-2.08-3.68-3.28-7.13-3.9-10.37,7.21,1.32,13.11,4.17,16.9,7.48l8.32,8.5,1.45,5.06h-1.09c-4.59,0-8.31,3.72-8.31,8.31h22.02l-6.78-22.98c-6.26,0-11.33-5.07-11.33-11.33Z"/><path d="M33.27,10.05c3.88,0,7.49,3.94,7.94,9.79.73,9.47-5.75,16.11-6.21,16.46,0,0,3.24.9,7.37.29-3.51,3.65-12.62,22.06,1.26,35.65l25.58-37.55c4.06-5.96,4.68-13.67,1.47-20.14-.02-.05-.05-.1-.07-.14-1.11-2.2-3.99-4.77-5.47-6.19,4.02-.58,7.11-4.03,7.11-8.21h-32.48c-7.24,0-13.12,5.87-13.12,13.12,0,0,1.76-3.07,6.6-3.07Z"/><path d="M39.47,72.1c-5.46-5.41-7.31-11.57-7.33-17.26l-11.78-11.78H0c0,5.6,4.54,10.14,10.14,10.14h6.9c6.31,6.78,8.45,15.3,8.84,18.9h13.59Z"/><path d="M215.3,11.49c.34-.28,1.43-.42,3.28-.42h11.76c5.48,0,10.15.39,14.03,1.15,3.88.77,6.58,1.49,8.12,2.17l-1.85-10.71V.92h-52c.43.06.86.51,1.29,1.34.43.83.65,2.23.65,4.2v44.3c0,1.97-.22,3.38-.65,4.25-.43.86-.86,1.29-1.29,1.29h18.09c-.43,0-.86-.42-1.29-1.25-.43-.83-.65-2.26-.65-4.29v-14.4c0-1.41.17-2.23.51-2.45.34-.21,1.4-.32,3.18-.32h23.07c0-.92.09-2.09.28-3.51.18-1.42.43-2.89.74-4.43.31-1.54.58-2.89.83-4.06-.68.43-2.11.85-4.29,1.25-2.18.4-5.06.6-8.63.6h-11.99c-1.79,0-2.85-.12-3.18-.37-.34-.25-.51-1.05-.51-2.4v-6.83c0-1.29.17-2.08.51-2.35Z"/><path d="M305.77,3.41c-4.34-2.28-9.98-3.41-16.94-3.41h-2.86c-7.08,0-12.81,1.15-17.21,3.46-4.4,2.31-7.63,5.57-9.69,9.78-2.06,4.21-3.09,9.24-3.09,15.09,0,9.11,2.35,16.2,7.06,21.27,4.71,5.08,12.35,7.61,22.94,7.61h2.86c10.34,0,17.84-2.54,22.52-7.61,4.68-5.08,7.01-12.17,7.01-21.27,0-5.85-1.01-10.89-3.05-15.14-2.03-4.25-5.21-7.51-9.55-9.78ZM302.59,39.18c-1.17,2.74-2.97,4.72-5.4,5.95-2.43,1.23-5.52,1.85-9.28,1.85h-1.01c-3.75,0-6.88-.61-9.37-1.85-2.49-1.23-4.37-3.21-5.63-5.95-1.26-2.74-1.89-6.35-1.89-10.84s.6-7.78,1.8-10.43c1.2-2.65,3.06-4.6,5.58-5.86,2.52-1.26,5.69-1.89,9.51-1.89h1.01c3.69,0,6.75.6,9.18,1.8,2.43,1.2,4.24,3.14,5.45,5.81,1.2,2.68,1.8,6.2,1.8,10.57s-.59,8.11-1.75,10.84Z"/><path d="M364.41,56.3h22.9c-.62-.06-1.54-.54-2.68-1.57-3.29-2.98-5.1-9.59-9.5-14.44-2.65-2.92-5.29-4.78-7.75-5.77v-.28c2.21-.61,4.21-1.6,6-2.95,1.78-1.35,3.19-3.11,4.2-5.26,1.01-2.15,1.52-4.61,1.52-7.38,0-3.88-.72-7.12-2.17-9.74-1.45-2.61-3.78-4.6-7.01-5.95-3.23-1.35-7.55-2.03-12.97-2.03h-30.27c.43.06.86.51,1.29,1.34.43.83.65,2.23.65,4.2v44.3c0,1.97-.2,3.38-.6,4.25-.4.86-.82,1.29-1.25,1.29h17.9c-.43,0-.86-.43-1.29-1.29-.43-.86-.65-2.28-.65-4.25v-11.08c0-1.23.15-2,.46-2.31.31-.31,1.41-.46,3.32-.46h1.02c3.14,0,5.92.57,8.35,1.71,2.43,1.14,4.57,2.78,6.41,4.94,1.85,2.15,4.89,8.14,3.91,11.49-.25.86-1.06,1.19-1.8,1.25ZM362.48,25.52c-1.72,1.38-4.52,2.08-8.4,2.08h-7.57c-1.91,0-3.01-.11-3.32-.32-.31-.21-.46-.94-.46-2.17v-11.35c0-1.23.15-1.94.46-2.12s1.41-.28,3.32-.28h8.49c2.58,0,4.6.31,6.05.92,1.44.62,2.48,1.48,3.09,2.58.61,1.11.92,2.37.92,3.78,0,3.2-.86,5.49-2.58,6.88Z"/><path d="M446.2,14.4l-1.85-10.71V.92h-57.22v2.77l-1.85,10.71c.68-.68,2.11-1.4,4.29-2.17,2.18-.77,5.06-1.15,8.63-1.15h6.74c1.85,0,2.92.12,3.23.37.31.25.46,1.05.46,2.4v36.92c0,1.97-.22,3.38-.65,4.25-.43.86-.86,1.29-1.29,1.29h18.09c-.43,0-.86-.43-1.29-1.29-.43-.86-.64-2.28-.64-4.25V13.84c0-1.35.15-2.15.46-2.4.31-.25,1.42-.37,3.32-.37h6.65c3.57,0,6.45.39,8.63,1.15,2.18.77,3.61,1.49,4.29,2.17Z"/><path d="M468.25,2.17c.43-.83.86-1.25,1.29-1.25h-17.81c.43,0,.84.43,1.25,1.29.4.86.6,2.28.6,4.25v44.3c0,2.03-.2,3.46-.6,4.29-.4.83-.82,1.25-1.25,1.25h17.81c-.43,0-.86-.43-1.29-1.29-.43-.86-.65-2.28-.65-4.25V6.55c0-2.09.21-3.55.65-4.38Z"/><path d="M534.97,32.16c-1.38-2.31-3.89-4.2-7.52-5.68-3.63-1.48-8.8-2.58-15.51-3.32-4.37-.49-7.85-1.02-10.43-1.57-2.58-.55-4.45-1.28-5.58-2.17-1.14-.89-1.71-2.08-1.71-3.55,0-1.23.32-2.26.97-3.09s1.74-1.48,3.28-1.94c1.54-.46,3.69-.69,6.46-.69,4.43,0,8.55.29,12.37.88,3.81.59,7.17,1.31,10.06,2.17,2.89.86,5.11,1.69,6.64,2.49l-2.77-10.15v-2.77c-1.72-.61-4.86-1.23-9.41-1.85-4.56-.61-10.03-.92-16.43-.92s-10.98.68-14.67,2.03c-3.69,1.35-6.37,3.23-8.03,5.63-1.66,2.4-2.49,5.2-2.49,8.4,0,3.94.92,7.09,2.77,9.46,1.85,2.37,4.65,4.2,8.4,5.49,3.75,1.29,8.43,2.31,14.03,3.05,4.68.62,8.29,1.2,10.84,1.75,2.55.55,4.32,1.25,5.31,2.08.98.83,1.48,1.98,1.48,3.46,0,1.17-.34,2.18-1.01,3.05-.68.86-1.94,1.52-3.78,1.98-1.85.46-4.49.69-7.94.69-5.6,0-9.1-.38-13.35-1.15-4.25-.77-7.72-1.71-10.43-2.81-2.71-1.11-4.65-2.15-5.82-3.14l1.85,11.72v2.77c2.28.62,6,1.23,11.17,1.85,5.17.61,9.69.92,16.39.92,4.68,0,8.72-.34,12.14-1.02,3.42-.68,6.21-1.69,8.4-3.05,2.18-1.35,3.8-3.09,4.84-5.21,1.05-2.12,1.57-4.6,1.57-7.43,0-3.26-.69-6.05-2.08-8.35Z"/><path d="M216.55,96.3v3.86h-15.71v-22.63h15.43v3.86h-11.03v5.45h9.53v3.57h-9.53v5.9h11.31Z"/><path d="M226.37,77.52l6.12,17.4,6.06-17.4h4.62l-8.57,22.63h-4.24l-8.61-22.63h4.62Z"/><path d="M253.94,77.52h4.46l8.32,22.63h-4.53l-1.88-5.64h-8.31l-1.89,5.64h-4.53l8.35-22.63ZM259.28,91.42l-3.11-9.34-3.13,9.34h6.24Z"/><path d="M273.25,100.15v-22.63h4.4v18.77h11.54v3.86h-15.94Z"/><path d="M304.9,100.31c-1.81,0-3.34-.3-4.61-.91-1.26-.61-2.28-1.44-3.06-2.5-.78-1.06-1.34-2.27-1.71-3.62-.36-1.35-.54-2.76-.54-4.22v-11.54h4.4v11.54c0,.94.09,1.84.27,2.73.18.88.48,1.67.91,2.37.42.7.99,1.25,1.69,1.66.7.4,1.57.61,2.61.61s1.95-.21,2.66-.62c.71-.41,1.27-.97,1.69-1.67.41-.7.72-1.49.91-2.37.19-.88.29-1.78.29-2.69v-11.54h4.37v11.54c0,1.55-.19,3.01-.56,4.37-.37,1.36-.96,2.56-1.75,3.59-.8,1.03-1.82,1.84-3.08,2.42-1.25.58-2.75.88-4.49.88Z"/><path d="M328.52,77.52h4.46l8.32,22.63h-4.53l-1.88-5.64h-8.31l-1.89,5.64h-4.53l8.35-22.63ZM333.86,91.42l-3.11-9.34-3.13,9.34h6.24Z"/><path d="M362.65,81.38h-7.24v18.77h-4.37v-18.77h-7.24v-3.86h18.84v3.86Z"/><path d="M369.51,100.15v-22.63h4.4v22.63h-4.4Z"/><path d="M392.33,100.31c-1.66,0-3.16-.32-4.51-.96-1.35-.64-2.51-1.5-3.47-2.6-.97-1.09-1.72-2.33-2.25-3.7-.53-1.37-.8-2.78-.8-4.22s.28-2.95.84-4.32c.56-1.37,1.34-2.59,2.33-3.67.99-1.07,2.16-1.92,3.51-2.55,1.35-.63,2.83-.94,4.45-.94s3.13.33,4.48.99c1.35.66,2.5,1.54,3.46,2.65.96,1.11,1.7,2.34,2.23,3.7.53,1.36.8,2.76.8,4.21s-.28,2.92-.83,4.29c-.55,1.37-1.32,2.59-2.31,3.67-.99,1.07-2.16,1.92-3.51,2.53-1.35.62-2.82.92-4.41.92ZM385.76,88.84c0,.98.15,1.92.45,2.84.3.91.73,1.73,1.29,2.44.56.71,1.25,1.27,2.07,1.69.82.41,1.75.62,2.79.62s2.01-.22,2.84-.65c.83-.44,1.52-1.02,2.07-1.75.55-.73.97-1.55,1.26-2.45.29-.9.43-1.81.43-2.73,0-.98-.15-1.92-.46-2.82-.31-.9-.74-1.71-1.31-2.42-.56-.71-1.25-1.27-2.07-1.69-.82-.41-1.74-.62-2.76-.62-1.08,0-2.03.22-2.85.65-.82.44-1.5,1.01-2.06,1.74-.55.72-.97,1.53-1.26,2.42-.29.89-.43,1.81-.43,2.74Z"/><path d="M415.21,85.62v14.53h-4.4v-22.63h3.51l11.7,14.92v-14.88h4.4v22.6h-3.67l-11.54-14.53Z"/><path d="M452.66,83.45c-.15-.15-.42-.35-.81-.61-.39-.25-.87-.5-1.43-.73-.56-.23-1.17-.44-1.83-.62-.66-.18-1.33-.27-2.01-.27-1.19,0-2.09.22-2.69.67-.61.44-.91,1.07-.91,1.87,0,.61.19,1.1.57,1.46s.96.67,1.72.92c.77.25,1.72.53,2.87.82,1.49.36,2.78.8,3.87,1.32,1.09.52,1.93,1.19,2.52,2.03.58.84.88,1.94.88,3.31,0,1.21-.22,2.24-.67,3.09-.45.86-1.06,1.55-1.85,2.08-.79.53-1.68.91-2.68,1.16-1,.24-2.06.36-3.19.36s-2.25-.12-3.38-.35c-1.13-.23-2.21-.57-3.25-1-1.04-.44-2-.96-2.87-1.58l1.94-3.79c.19.19.53.44,1.02.75.49.31,1.08.62,1.78.92.7.31,1.47.57,2.29.78.83.21,1.67.32,2.52.32,1.19,0,2.09-.2,2.71-.6.62-.4.92-.97.92-1.7,0-.68-.24-1.21-.73-1.59-.49-.38-1.17-.71-2.04-1-.87-.29-1.9-.6-3.09-.94-1.42-.4-2.61-.85-3.57-1.35-.96-.5-1.67-1.13-2.14-1.89-.47-.76-.7-1.71-.7-2.86,0-1.54.37-2.84,1.1-3.89.73-1.05,1.73-1.84,2.98-2.38,1.25-.54,2.65-.81,4.18-.81,1.06,0,2.07.12,3.01.35.95.23,1.83.54,2.66.92.83.38,1.57.8,2.23,1.24l-1.94,3.57Z"/></svg>